<svg xmlns="http://www.w3.org/2000/svg" viewBox="0 0 300 200"><path d="M150.3 99.3c12.4 13.6 18.4 25.6 31.3 25.6 12.9 0 23.3-11.1 23.3-25s-10.4-25.1-23.3-25c-12.9.1-17.7 10.3-29.5 24.4-11.9 12.6-20.9 25.6-33.9 25.6-12.9 0-23.3-11.1-23.3-25s10.4-25 23.3-25 21.9 13.3 32.1 24.4z" fill="none" stroke="#e4e4e4" stroke-width="10" stroke-linecap="round" stroke-linejoin="round" stroke-miterlimit="10"/><path d="M150.3 99.3c12.4 13.6 18.4 25.6 31.3 25.6 12.9 0 23.3-11.1 23.3-25s-10.4-25.1-23.3-25c-12.9.1-17.7 10.3-29.5 24.4-11.9 12.6-20.9 25.6-33.9 25.6-12.9 0-23.3-11.1-23.3-25s10.4-25 23.3-25 21.9 13.3 32.1 24.4z" fill="none" stroke="#ae967b" stroke-width="10" stroke-linecap="round" stroke-linejoin="round" stroke-miterlimit="10"/></svg>