<svg width="110" height="50" fill="none" xmlns="http://www.w3.org/2000/svg"><path d="M83.572 0C70.532 0 62.085 8.198 55 16.914 47.92 8.204 39.47 0 26.428 0 11.855 0 0 11.216 0 25s11.855 25 26.428 25C39.468 50 47.915 41.802 55 33.086 62.08 41.796 70.53 50 83.572 50 98.144 50 110 38.784 110 25S98.144 0 83.572 0zM26.428 40C17.371 40 10 33.272 10 25c0-8.271 7.37-15 16.428-15 9.5 0 15.679 6.67 22.236 15-6.552 8.33-12.734 15-22.236 15zm57.144 0c-9.5 0-15.679-6.67-22.236-15 6.552-8.33 12.734-15 22.236-15C92.629 10 100 16.729 100 25c0 8.272-7.37 15-16.428 15z" fill="#E4E4E4"/></svg>