<svg width="39" height="54" fill="none" xmlns="http://www.w3.org/2000/svg"><path fill-rule="evenodd" clip-rule="evenodd" d="M30.807.003c-.065 0-.098.066-.098.132.033.199.066.397.098.629.39 2.546.293 6.348-.162 10.746-1.073 18.914-6.178 36.307-11.932 36.836 4.876-.496 8.908-15.178 10.859-29.032-2.341 13.788-7.055 29.032-11.087 29.032-5.072 0 3.186-18.253 3.186-18.253s-.552-.992-2.276-.992c-3.966 0-7.25 10.02-10.078 14.219 2.86-5.159 11.769-25.56 5.917-25.56C8.797 15.71-3.883 29.927 1.156 34.623c0 0 .325 3.538 3.804 3.538 0 0 .715-9.39 7.543-14.946C5.448 27.514 4.96 38.161 4.96 38.161c0-7.142 3.121-12.598 7.543-14.946C9.577 36.706.376 49.9 3.497 50.76c0 0 .65 3.24 2.764 3.24 2.763 0 3.25-6.878 8.193-14.285 0 0-2.276 5.39-.976 7.01 0 0-.845 6.647 4.78 6.647C27.133 53.372 39 18.718 39 8.898c0-6.68-4.324-8.994-8.193-8.895z" fill="#000"/></svg>