<svg width="29" height="29" viewBox="0 0 29 29" fill="none" xmlns="http://www.w3.org/2000/svg">
<path fill-rule="evenodd" clip-rule="evenodd" d="M28.7071 1.70703C29.0977 1.31641 29.0977 0.683594 28.7071 0.292969C28.3166 -0.0976562 27.6834 -0.0976562 27.2929 0.292969L14.5 13.0859L1.70711 0.292969C1.3166 -0.0976562 0.683426 -0.0976562 0.292923 0.292969C-0.097641 0.683594 -0.097641 1.31641 0.292923 1.70703L13.0859 14.5L0.292923 27.293C-0.097641 27.6836 -0.097641 28.3164 0.292923 28.707C0.683426 29.0977 1.3166 29.0977 1.70711 28.707L14.5 15.9141L27.2929 28.707C27.6834 29.0977 28.3166 29.0977 28.7071 28.707C29.0977 28.3164 29.0977 27.6836 28.7071 27.293L15.9141 14.5L28.7071 1.70703Z" fill="black"/>
</svg>
