<?xml version="1.0" encoding="utf-8"?>
<!-- Generator: Adobe Illustrator 22.0.0, SVG Export Plug-In . SVG Version: 6.00 Build 0)  -->
<svg version="1.1" id="Слой_1" xmlns="http://www.w3.org/2000/svg" xmlns:xlink="http://www.w3.org/1999/xlink" x="0px" y="0px"
	 viewBox="0 0 300 200" style="enable-background:new 0 0 300 200;" xml:space="preserve">
<style type="text/css">
	.st0{fill:none;stroke:#E4E4E4;stroke-width:10;stroke-linecap:round;stroke-linejoin:round;stroke-miterlimit:10;}
	.st1{fill:none;stroke:#AE967B;stroke-width:10;stroke-linecap:round;stroke-linejoin:round;stroke-miterlimit:10;}
</style>
<path id="outline-bg" class="st0" d="M150.3,99.3c12.4,13.6,18.4,25.6,31.3,25.6c12.9,0,23.3-11.1,23.3-25s-10.4-25.1-23.3-25
	c-12.9,0.1-17.7,10.3-29.5,24.4c-11.9,12.6-20.9,25.6-33.9,25.6c-12.9,0-23.3-11.1-23.3-25s10.4-25,23.3-25S140.1,88.2,150.3,99.3z"
	/>
<path id="outline" class="st1" d="M150.3,99.3c12.4,13.6,18.4,25.6,31.3,25.6c12.9,0,23.3-11.1,23.3-25s-10.4-25.1-23.3-25
	c-12.9,0.1-17.7,10.3-29.5,24.4c-11.9,12.6-20.9,25.6-33.9,25.6c-12.9,0-23.3-11.1-23.3-25s10.4-25,23.3-25S140.1,88.2,150.3,99.3z"
	/>
</svg>
