<svg width="110" height="50" viewBox="0 0 110 50" fill="none" xmlns="http://www.w3.org/2000/svg">
<path d="M83.5717 0C70.5322 0 62.085 8.19825 55 16.9141C47.9199 8.20312 39.4702 0 26.4282 0C11.8555 0 0 11.2159 0 25C0 38.7841 11.8555 50 26.4282 50C39.4677 50 47.915 41.8017 55 33.086C62.0801 41.7969 70.5297 50 83.5717 50C98.1445 50 110 38.7841 110 25C110 11.2159 98.1445 0 83.5717 0ZM26.4282 40C17.3706 40 10 33.2715 10 25C10 16.7285 17.3706 10 26.4282 10C35.9282 10 42.1069 16.6699 48.6645 25C42.1125 33.3301 35.9301 40 26.4282 40ZM83.5717 40C74.0717 40 67.8931 33.3301 61.3355 25C67.8881 16.6699 74.0699 10 83.5717 10C92.6294 10 100 16.7285 100 25C100 33.2715 92.6294 40 83.5717 40Z" fill="#E4E4E4"/>
</svg>
