<svg width="39" height="54" viewBox="0 0 39 54" fill="none" xmlns="http://www.w3.org/2000/svg">
<path fill-rule="evenodd" clip-rule="evenodd" d="M30.807 0.00304076C30.742 0.00304076 30.7095 0.069173 30.7095 0.135305C30.742 0.333702 30.7745 0.532099 30.807 0.763561C31.1972 3.30965 31.0996 7.11225 30.6445 11.51C29.5716 30.4239 24.4672 47.8166 18.7126 48.3457C23.5894 47.8497 27.6209 33.1684 29.5716 19.3137C27.2307 33.1022 22.5165 48.3457 18.485 48.3457C13.4132 48.3457 21.6712 30.0932 21.6712 30.0932C21.6712 30.0932 21.1185 29.1012 19.3954 29.1012C15.4289 29.1012 12.1452 39.1202 9.3167 43.3196C12.1777 38.1613 21.086 17.7595 15.2339 17.7595C8.79651 15.7094 -3.88311 29.9279 1.15623 34.6233C1.15623 34.6233 1.48134 38.1613 4.96011 38.1613C4.96011 38.1613 5.67537 28.7706 12.5029 23.2155C5.44779 27.514 4.96011 38.1613 4.96011 38.1613C4.96011 31.0191 8.08125 25.5631 12.5029 23.2155C9.57679 36.7064 0.375942 49.8998 3.49708 50.7595C3.49708 50.7595 4.14732 54 6.26058 54C9.02409 54 9.51177 47.1222 14.4536 39.7154C14.4536 39.7154 12.1777 45.1052 13.4782 46.7255C13.4782 46.7255 12.6329 53.3717 18.2575 53.3717C27.1332 53.3717 39 18.7185 39 8.89782C39 2.21847 34.6759 -0.0961576 30.807 0.00304076Z" fill="white"/>
</svg>
