<?xml version="1.0" encoding="utf-8"?><svg width="114" height="97" viewBox="0 0 114 97" xmlns="http://www.w3.org/2000/svg" xmlns:xlink="http://www.w3.org/1999/xlink"><svg width="19" height="24" viewBox="-1 -1 19 24" fill="none" id="arrows" x="80" xmlns="http://www.w3.org/2000/svg"><path d="M3.002 21v-2c0-6 10-8 10-14.007V3" stroke="#333" stroke-linecap="round"/><path d="M13.002 21v-2c0-6-10-8.007-10-14.007V2" stroke="#333" stroke-linecap="round"/><path d="M5.834 3.445A1 1 0 0 1 5.002 5h-4A1 1 0 0 1 .17 3.445l2-3a1 1 0 0 1 1.664 0l2 3zM15.834 3.445A1 1 0 0 1 15.002 5h-4a1 1 0 0 1-.832-1.555l2-3a1 1 0 0 1 1.664 0l2 3z" fill="#333"/></svg><svg width="19" height="24" viewBox="-1 -1 19 24" fill="none" id="arrows-w" x="80" y="24" xmlns="http://www.w3.org/2000/svg"><path d="M3.002 21v-2c0-6 10-8 10-14.007V3" stroke="#fff" stroke-linecap="round"/><path d="M13.002 21v-2c0-6-10-8.007-10-14.007V2" stroke="#fff" stroke-linecap="round"/><path d="M5.834 3.445A1 1 0 0 1 5.002 5h-4A1 1 0 0 1 .17 3.445l2-3a1 1 0 0 1 1.664 0l2 3zM15.834 3.445A1 1 0 0 1 15.002 5h-4a1 1 0 0 1-.832-1.555l2-3a1 1 0 0 1 1.664 0l2 3z" fill="#fff"/></svg><svg width="18" height="18" viewBox="-1 -1 18 18" fill="none" id="close" y="67" xmlns="http://www.w3.org/2000/svg"><g opacity=".5" stroke="#000" stroke-linecap="round"><path d="M15 1L1 15M1 1l14 14"/></g></svg><svg width="14" height="13" viewBox="-1 -1 14 13" fill="none" id="comments" x="99" y="59" xmlns="http://www.w3.org/2000/svg"><path fill-rule="evenodd" clip-rule="evenodd" d="M2.151 8.843l1.625 1.71.424.446.424-.446 1.625-1.71h4.553c.662 0 1.198-.567 1.198-1.265V1.264C12 .571 11.465 0 10.804 0H1.196C.534 0 0 .567 0 1.264v6.314c0 .695.537 1.265 1.2 1.265h.951z" fill="#fff"/></svg><svg width="13" height="25" viewBox="-1 -1 13 25" fill="none" id="fb" x="54" xmlns="http://www.w3.org/2000/svg"><path fill-rule="evenodd" clip-rule="evenodd" d="M7.315 23V11.499h3.254L11 7.535H7.315l.005-1.984c0-1.033.1-1.587 1.623-1.587h2.034V0H7.722c-3.91 0-5.285 1.923-5.285 5.156v2.38H0v3.963h2.437V23h4.878z" fill="#000"/></svg><svg width="8" height="14" viewBox="-1 -1 8 14" fill="none" id="fb-s" x="99" y="45" xmlns="http://www.w3.org/2000/svg"><path d="M.179 6.342h1.215v4.739c0 .093.08.169.179.169h2.06a.174.174 0 0 0 .179-.17V6.366h1.397c.09 0 .167-.065.178-.15l.212-1.745a.164.164 0 0 0-.044-.132.183.183 0 0 0-.134-.057H3.812V3.188c0-.33.187-.497.557-.497h1.052a.174.174 0 0 0 .179-.17v-1.6c0-.094-.08-.17-.179-.17h-1.45L3.905.75c-.252 0-1.126.047-1.817.649-.765.667-.659 1.465-.634 1.604V4.28H.18a.174.174 0 0 0-.179.17v1.722c0 .093.08.17.179.17z" fill="#454545"/></svg><svg width="8" height="14" viewBox="-1 -1 8 14" fill="none" id="fb-s-w" x="99" y="72" xmlns="http://www.w3.org/2000/svg"><path d="M.179 6.342h1.215v4.739c0 .093.08.169.179.169h2.06a.174.174 0 0 0 .179-.17V6.366h1.397c.09 0 .167-.065.178-.15l.212-1.745a.164.164 0 0 0-.044-.132.183.183 0 0 0-.134-.057H3.812V3.188c0-.33.187-.497.557-.497h1.052a.174.174 0 0 0 .179-.17v-1.6c0-.094-.08-.17-.179-.17h-1.45L3.905.75c-.252 0-1.126.047-1.817.649-.765.667-.659 1.465-.634 1.604V4.28H.18a.174.174 0 0 0-.179.17v1.722c0 .093.08.17.179.17z" fill="#fff"/></svg><svg width="13" height="25" viewBox="-1 -1 13 25" fill="none" id="fb-w" x="67" xmlns="http://www.w3.org/2000/svg"><path fill-rule="evenodd" clip-rule="evenodd" d="M7.315 23V11.499h3.254L11 7.535H7.315l.005-1.984c0-1.033.1-1.587 1.623-1.587h2.034V0H7.722c-3.91 0-5.285 1.923-5.285 5.156v2.38H0v3.963h2.437V23h4.878z" fill="#fff"/></svg><svg width="9" height="15" viewBox="-1 -1 9 15" fill="none" id="fb-xs-w" x="99" y="15" xmlns="http://www.w3.org/2000/svg"><path d="M.209 6.725h1.417v5.528c0 .109.094.197.209.197h2.404a.203.203 0 0 0 .208-.197V6.75h1.63a.205.205 0 0 0 .207-.175l.248-2.036a.19.19 0 0 0-.052-.154.214.214 0 0 0-.155-.066H4.447V3.044c0-.384.22-.58.65-.58h1.228a.203.203 0 0 0 .208-.197V.4a.203.203 0 0 0-.208-.197H4.633C4.621.202 4.595.2 4.556.2c-.294 0-1.314.055-2.12.757-.893.778-.769 1.71-.74 1.871V4.32H.21A.203.203 0 0 0 0 4.518v2.009c0 .11.093.198.209.198z" fill="#fff"/></svg><svg width="15" height="15" viewBox="-1 -1 15 15" fill="none" id="insta-s" x="99" xmlns="http://www.w3.org/2000/svg"><path fill-rule="evenodd" clip-rule="evenodd" d="M3.798 0h5.154a3.803 3.803 0 0 1 3.798 3.798v5.154a3.803 3.803 0 0 1-3.798 3.798H3.798A3.803 3.803 0 0 1 0 8.952V3.798A3.803 3.803 0 0 1 3.798 0zm5.154 11.467a2.515 2.515 0 0 0 2.515-2.515V3.798a2.516 2.516 0 0 0-2.515-2.515H3.798a2.516 2.516 0 0 0-2.515 2.515v5.154a2.515 2.515 0 0 0 2.515 2.515h5.154z" fill="#454545"/><path fill-rule="evenodd" clip-rule="evenodd" d="M3.075 6.373a3.301 3.301 0 0 1 3.298-3.298A3.301 3.301 0 0 1 9.67 6.373 3.301 3.301 0 0 1 6.373 9.67a3.301 3.301 0 0 1-3.298-3.297zm1.283 0a2.015 2.015 0 1 0 4.029 0 2.015 2.015 0 0 0-4.03 0z" fill="#454545"/><path d="M9.678 3.89a.79.79 0 1 0 0-1.58.79.79 0 0 0 0 1.58z" fill="#454545"/></svg><svg width="15" height="15" viewBox="-1 -1 15 15" fill="none" id="insta-s-w" x="99" y="30" xmlns="http://www.w3.org/2000/svg"><path fill-rule="evenodd" clip-rule="evenodd" d="M3.798 0h5.154a3.803 3.803 0 0 1 3.798 3.798v5.154a3.803 3.803 0 0 1-3.798 3.798H3.798A3.803 3.803 0 0 1 0 8.952V3.798A3.803 3.803 0 0 1 3.798 0zm5.154 11.467a2.516 2.516 0 0 0 2.515-2.515V3.798a2.516 2.516 0 0 0-2.515-2.515H3.798a2.516 2.516 0 0 0-2.515 2.515v5.154a2.515 2.515 0 0 0 2.515 2.515h5.154z" fill="#fff"/><path fill-rule="evenodd" clip-rule="evenodd" d="M3.075 6.373a3.301 3.301 0 0 1 3.298-3.298A3.301 3.301 0 0 1 9.67 6.373 3.301 3.301 0 0 1 6.373 9.67a3.301 3.301 0 0 1-3.298-3.297zm1.283 0a2.015 2.015 0 1 0 4.029 0 2.015 2.015 0 0 0-4.03 0z" fill="#fff"/><path d="M9.678 3.89a.79.79 0 1 0 0-1.58.79.79 0 0 0 0 1.58z" fill="#fff"/></svg><svg width="26" height="22" viewBox="-1 -1 26 22" fill="none" id="tg" x="28" xmlns="http://www.w3.org/2000/svg"><path d="M9.027 18.788c-.715 0-.594-.268-.84-.945l-2.103-6.875 16.185-9.54" fill="#515151"/><path d="M9.027 18.789c.552 0 .796-.251 1.104-.549l2.942-2.843-3.67-2.199" fill="#515151"/><path d="M9.402 13.199l8.894 6.529c1.015.556 1.748.268 2-.937l3.621-16.95c.37-1.477-.566-2.147-1.537-1.709L1.12 8.277C-.33 8.855-.321 9.66.857 10.018l5.456 1.692 12.63-7.917c.596-.36 1.143-.166.694.23" fill="#000"/></svg><svg width="26" height="22" viewBox="-1 -1 26 22" fill="none" id="tg-w" y="24" xmlns="http://www.w3.org/2000/svg"><path d="M9.027 18.788c-.715 0-.594-.268-.84-.945l-2.103-6.875 16.185-9.54" fill="#E7DDD2"/><path d="M9.027 18.789c.552 0 .796-.251 1.104-.549l2.942-2.843-3.67-2.199" fill="#CABBAA"/><path d="M9.402 13.199l8.894 6.529c1.015.556 1.748.268 2-.937l3.621-16.95c.37-1.477-.566-2.147-1.537-1.709L1.12 8.277C-.33 8.855-.321 9.66.857 10.018l5.456 1.692 12.63-7.917c.596-.36 1.143-.166.694.23" fill="url(#ma)"/><defs><linearGradient id="ma" x1="5" y1="3.5" x2="21.5" y2="18.5" gradientUnits="userSpaceOnUse"><stop stop-color="#fff"/><stop offset="1" stop-color="#fff"/></linearGradient></defs></svg><svg width="28" height="24" viewBox="-1 -1 28 24" fill="none" id="tg-wb" xmlns="http://www.w3.org/2000/svg"><path d="M9.78 20.667c-.775 0-.644-.295-.91-1.04L6.59 12.066 24.125 1.571" fill="#C8DAEA"/><path d="M9.78 20.667c.597 0 .861-.276 1.195-.603l3.188-3.127-3.977-2.42" fill="#A9C9DD"/><path d="M10.186 14.519L19.82 21.7c1.1.612 1.893.296 2.167-1.03L25.91 2.026C26.312.4 25.297-.336 24.245.145L1.214 9.106c-1.572.636-1.563 1.52-.287 1.915l5.91 1.86L20.52 4.173c.646-.395 1.24-.183.753.253" fill="url(#na)"/><defs><linearGradient id="na" x1="17.152" y1="9.612" x2="20.949" y2="18.177" gradientUnits="userSpaceOnUse"><stop stop-color="#EFF7FC"/><stop offset="1" stop-color="#fff"/></linearGradient></defs></svg><svg width="24" height="21" viewBox="-1 -1 24 21" fill="none" id="tw" y="46" xmlns="http://www.w3.org/2000/svg"><path fill-rule="evenodd" clip-rule="evenodd" d="M10.682 5.054l.048.822-.795-.1C7.042 5.39 4.515 4.081 2.37 1.883L1.319.794l-.27.805c-.572 1.795-.207 3.69.986 4.965.636.704.492.805-.604.385-.382-.134-.716-.234-.747-.184-.112.117.27 1.644.572 2.247.413.839 1.256 1.66 2.178 2.147l.779.386-.922.017c-.89 0-.922.016-.827.369.318 1.09 1.574 2.247 2.973 2.75l.985.352-.858.537a8.66 8.66 0 0 1-4.26 1.241c-.716.017-1.304.084-1.304.134 0 .168 1.94 1.107 3.068 1.476 3.386 1.09 7.408.62 10.428-1.24 2.146-1.326 4.292-3.959 5.293-6.508.54-1.359 1.081-3.84 1.081-5.032 0-.771.048-.872.938-1.794.525-.537 1.018-1.124 1.113-1.292.159-.318.143-.318-.668-.033-1.35.503-1.542.436-.874-.319.493-.537 1.08-1.51 1.08-1.794 0-.05-.238.033-.508.184-.286.168-.922.42-1.399.57l-.858.285-.779-.553c-.43-.302-1.033-.637-1.351-.738-.81-.235-2.05-.201-2.782.067a4.806 4.806 0 0 0-3.1 4.83z" fill="#000"/></svg><svg width="24" height="21" viewBox="-1 -1 24 21" fill="none" id="tw-w" x="26" y="24" xmlns="http://www.w3.org/2000/svg"><path fill-rule="evenodd" clip-rule="evenodd" d="M10.682 5.054l.048.822-.795-.1C7.042 5.39 4.515 4.081 2.37 1.883L1.319.794l-.27.805c-.572 1.795-.207 3.69.986 4.965.636.704.492.805-.604.385-.382-.134-.716-.234-.747-.184-.112.117.27 1.644.572 2.247.413.839 1.256 1.66 2.178 2.147l.779.386-.922.017c-.89 0-.922.016-.827.369.318 1.09 1.574 2.247 2.973 2.75l.985.352-.858.537a8.66 8.66 0 0 1-4.26 1.241c-.716.017-1.304.084-1.304.134 0 .168 1.94 1.107 3.068 1.476 3.386 1.09 7.408.62 10.428-1.24 2.146-1.326 4.292-3.959 5.293-6.508.54-1.359 1.081-3.84 1.081-5.032 0-.771.048-.872.938-1.794.525-.537 1.018-1.124 1.113-1.292.159-.318.143-.318-.668-.033-1.35.503-1.542.436-.874-.319.493-.537 1.08-1.51 1.08-1.794 0-.05-.238.033-.508.184-.286.168-.922.42-1.399.57l-.858.285-.779-.553c-.43-.302-1.033-.637-1.351-.738-.81-.235-2.05-.201-2.782.067a4.806 4.806 0 0 0-3.1 4.83z" fill="#fff"/></svg><svg width="19" height="15" viewBox="-1 -1 19 15" fill="none" id="tw-xs-w" x="80" y="48" xmlns="http://www.w3.org/2000/svg"><path d="M5.643 12.715c5.811 0 8.99-4.815 8.99-8.99 0-.137 0-.273-.01-.409A6.43 6.43 0 0 0 16.2 1.681a6.307 6.307 0 0 1-1.815.497A3.17 3.17 0 0 0 15.775.43a6.331 6.331 0 0 1-2.007.767A3.162 3.162 0 0 0 8.383 4.08 8.97 8.97 0 0 1 1.872.778a3.162 3.162 0 0 0 .978 4.217A3.136 3.136 0 0 1 1.416 4.6v.04A3.16 3.16 0 0 0 3.95 7.737a3.154 3.154 0 0 1-1.427.054 3.163 3.163 0 0 0 2.952 2.195A6.34 6.34 0 0 1 .8 11.296a8.944 8.944 0 0 0 4.843 1.416" fill="#fff"/></svg><svg width="17" height="12" viewBox="-1 -1 17 12" fill="none" id="views" y="85" xmlns="http://www.w3.org/2000/svg"><path fill-rule="evenodd" clip-rule="evenodd" d="M.682 5.136S2.727.363 7.5.363s6.818 4.773 6.818 4.773S12.273 9.909 7.5 9.909.682 5.136.682 5.136zM7.55 7.09a2 2 0 1 0 0-4 2 2 0 0 0 0 4z" fill="#fff"/></svg><svg width="24" height="15" viewBox="-1 -1 24 15" fill="none" id="vk" x="48" y="46" xmlns="http://www.w3.org/2000/svg"><path fill-rule="evenodd" clip-rule="evenodd" d="M12.079 12.946s.397-.046.6-.272c.187-.208.18-.599.18-.599s-.025-1.826.794-2.096c.807-.265 1.843 1.766 2.943 2.548.83.59 1.461.461 1.461.461l2.939-.042s1.537-.098.808-1.35c-.06-.103-.425-.926-2.184-2.618-1.844-1.771-1.596-1.485.623-4.548 1.351-1.866 1.891-3.005 1.722-3.492-.16-.466-1.154-.342-1.154-.342l-3.308.02s-.245-.034-.427.079c-.178.11-.293.368-.293.368s-.523 1.443-1.221 2.671c-1.473 2.59-2.062 2.727-2.303 2.567-.56-.376-.42-1.507-.42-2.31 0-2.511.368-3.558-.716-3.829-.36-.09-.624-.15-1.544-.16C9.399-.008 8.4.008 7.834.295c-.377.19-.667.616-.49.64.219.03.714.139.976.509.34.478.327 1.55.327 1.55s.195 2.956-.455 3.322c-.445.252-1.056-.262-2.37-2.612-.673-1.204-1.18-2.534-1.18-2.534S4.543.92 4.367.786C4.156.625 3.86.575 3.86.575L.717.595S.245.61.072.823c-.154.188-.012.58-.012.58s2.46 5.963 5.248 8.97c2.555 2.754 5.456 2.574 5.456 2.574h1.315z" fill="#000"/></svg><svg width="17" height="11" viewBox="-1 -1 17 11" fill="none" id="vk-s-w" x="35" y="67" xmlns="http://www.w3.org/2000/svg"><path d="M14.92 8.128a1.118 1.118 0 0 0-.05-.103c-.26-.493-.758-1.098-1.492-1.815l-.016-.016-.007-.008-.008-.009h-.008a9.258 9.258 0 0 1-.633-.673c-.161-.22-.197-.44-.11-.666.063-.17.298-.528.704-1.075.213-.29.382-.523.507-.698C14.708 1.805 15.1 1 14.98.65l-.047-.082c-.03-.05-.112-.094-.242-.136a1.171 1.171 0 0 0-.5-.02l-2.249.016a.278.278 0 0 0-.156.004l-.102.025-.039.02-.03.025a.356.356 0 0 0-.087.087.578.578 0 0 0-.078.143 13.716 13.716 0 0 1-.835 1.848c-.193.34-.37.634-.532.883-.16.25-.296.433-.406.55-.109.118-.208.212-.296.284-.089.071-.157.101-.203.09a5.504 5.504 0 0 1-.133-.033.537.537 0 0 1-.176-.201.936.936 0 0 1-.09-.32 3.705 3.705 0 0 1-.027-.333 7.342 7.342 0 0 1 .004-.394c.005-.17.008-.285.008-.345 0-.208.004-.434.011-.678l.02-.579c.005-.142.008-.293.008-.452 0-.158-.01-.283-.028-.373a1.327 1.327 0 0 0-.082-.263.437.437 0 0 0-.16-.197.878.878 0 0 0-.261-.111A4.95 4.95 0 0 0 7.216 0c-.968-.01-1.59.055-1.866.197-.11.06-.208.143-.297.247-.094.12-.107.186-.04.197.313.049.535.167.665.353l.047.098c.036.072.073.198.109.378.036.181.06.38.07.6.026.4.026.742 0 1.026-.026.285-.05.507-.074.666a1.384 1.384 0 0 1-.2.566.138.138 0 0 1-.038.041.56.56 0 0 1-.211.042c-.073 0-.161-.039-.266-.116a1.914 1.914 0 0 1-.324-.316 4.232 4.232 0 0 1-.378-.562 9.99 9.99 0 0 1-.438-.854l-.125-.239a20.923 20.923 0 0 1-.32-.669 13.256 13.256 0 0 1-.36-.85.54.54 0 0 0-.187-.263L2.944.518A.798.798 0 0 0 2.64.395L.5.412C.282.412.134.464.056.568L.023.617A.277.277 0 0 0 0 .748c0 .06.016.135.047.222.312.772.652 1.517 1.019 2.234.367.717.686 1.295.957 1.733.27.438.546.851.828 1.24.28.389.467.638.558.747.091.11.163.192.215.247l.195.197c.125.131.308.289.55.472.243.184.51.364.805.542.294.178.637.323 1.027.435.39.113.77.158 1.14.136h.898c.183-.016.32-.077.414-.18l.031-.042a.56.56 0 0 0 .059-.152.876.876 0 0 0 .027-.225 2.844 2.844 0 0 1 .051-.637c.039-.189.083-.331.133-.427a1.05 1.05 0 0 1 .3-.361.497.497 0 0 1 .063-.029c.125-.044.272-.001.441.127.17.13.328.288.477.477.148.189.327.4.535.636.208.236.39.41.546.526l.157.099c.104.065.24.126.406.18a.834.834 0 0 0 .437.041l2-.032c.197 0 .351-.035.46-.103.11-.069.174-.144.195-.226a.667.667 0 0 0 .004-.28 1.07 1.07 0 0 0-.055-.217z" fill="#fff"/></svg><svg width="24" height="15" viewBox="-1 -1 24 15" fill="none" id="vk-w" x="24" y="46" xmlns="http://www.w3.org/2000/svg"><path fill-rule="evenodd" clip-rule="evenodd" d="M12.079 12.946s.397-.046.6-.272c.187-.208.18-.599.18-.599s-.025-1.826.794-2.096c.807-.265 1.843 1.766 2.943 2.548.83.59 1.461.461 1.461.461l2.939-.042s1.537-.098.808-1.35c-.06-.103-.425-.926-2.184-2.618-1.844-1.771-1.596-1.485.623-4.548 1.351-1.866 1.891-3.005 1.722-3.492-.16-.466-1.154-.342-1.154-.342l-3.308.02s-.245-.034-.427.079c-.178.11-.293.368-.293.368s-.523 1.443-1.221 2.671c-1.473 2.59-2.062 2.727-2.303 2.567-.56-.376-.42-1.507-.42-2.31 0-2.511.368-3.558-.716-3.829-.36-.09-.624-.15-1.544-.16C9.399-.008 8.4.008 7.834.295c-.377.19-.667.616-.49.64.219.03.714.139.976.509.34.478.327 1.55.327 1.55s.195 2.956-.455 3.322c-.445.252-1.056-.262-2.37-2.612-.673-1.204-1.18-2.534-1.18-2.534S4.543.92 4.367.786C4.156.625 3.86.575 3.86.575L.717.595S.245.61.072.823c-.154.188-.012.58-.012.58s2.46 5.963 5.248 8.97c2.555 2.754 5.456 2.574 5.456 2.574h1.315z" fill="#fff"/></svg><svg width="17" height="11" viewBox="-1 -1 17 11" fill="none" id="vk-xs-w" x="18" y="67" xmlns="http://www.w3.org/2000/svg"><path d="M14.92 8.128a1.118 1.118 0 0 0-.05-.103c-.26-.493-.758-1.098-1.492-1.815l-.016-.016-.007-.008-.008-.009h-.008a9.258 9.258 0 0 1-.633-.673c-.161-.22-.197-.44-.11-.666.063-.17.298-.528.704-1.075.213-.29.382-.523.507-.698C14.708 1.805 15.1 1 14.98.65l-.047-.082c-.03-.05-.112-.094-.242-.136a1.171 1.171 0 0 0-.5-.02l-2.249.016a.278.278 0 0 0-.156.004l-.102.025-.039.02-.03.025a.356.356 0 0 0-.087.087.578.578 0 0 0-.078.143 13.716 13.716 0 0 1-.835 1.848c-.193.34-.37.634-.532.883-.16.25-.296.433-.406.55-.109.118-.208.212-.296.284-.089.071-.157.101-.203.09a5.504 5.504 0 0 1-.133-.033.537.537 0 0 1-.176-.201.936.936 0 0 1-.09-.32 3.705 3.705 0 0 1-.027-.333 7.342 7.342 0 0 1 .004-.394c.005-.17.008-.285.008-.345 0-.208.004-.434.011-.678l.02-.579c.005-.142.008-.293.008-.452 0-.158-.01-.283-.028-.373a1.327 1.327 0 0 0-.082-.263.437.437 0 0 0-.16-.197.878.878 0 0 0-.261-.111A4.95 4.95 0 0 0 7.216 0c-.968-.01-1.59.055-1.866.197-.11.06-.208.143-.297.247-.094.12-.107.186-.04.197.313.049.535.167.665.353l.047.098c.036.072.073.198.109.378.036.181.06.38.07.6.026.4.026.742 0 1.026-.026.285-.05.507-.074.666a1.384 1.384 0 0 1-.2.566.138.138 0 0 1-.038.041.56.56 0 0 1-.211.042c-.073 0-.161-.039-.266-.116a1.914 1.914 0 0 1-.324-.316 4.232 4.232 0 0 1-.378-.562 9.99 9.99 0 0 1-.438-.854l-.125-.239a20.923 20.923 0 0 1-.32-.669 13.256 13.256 0 0 1-.36-.85.54.54 0 0 0-.187-.263L2.944.518A.798.798 0 0 0 2.64.395L.5.412C.282.412.134.464.056.568L.023.617A.277.277 0 0 0 0 .748c0 .06.016.135.047.222.312.772.652 1.517 1.019 2.234.367.717.686 1.295.957 1.733.27.438.546.851.828 1.24.28.389.467.638.558.747.091.11.163.192.215.247l.195.197c.125.131.308.289.55.472.243.184.51.364.805.542.294.178.637.323 1.027.435.39.113.77.158 1.14.136h.898c.183-.016.32-.077.414-.18l.031-.042a.56.56 0 0 0 .059-.152.876.876 0 0 0 .027-.225 2.844 2.844 0 0 1 .051-.637c.039-.189.083-.331.133-.427a1.05 1.05 0 0 1 .3-.361.497.497 0 0 1 .063-.029c.125-.044.272-.001.441.127.17.13.328.288.477.477.148.189.327.4.535.636.208.236.39.41.546.526l.157.099c.104.065.24.126.406.18a.834.834 0 0 0 .437.041l2-.032c.197 0 .351-.035.46-.103.11-.069.174-.144.195-.226a.667.667 0 0 0 .004-.28 1.07 1.07 0 0 0-.055-.217z" fill="#fff"/></svg></svg>