<?xml version="1.0" encoding="utf-8"?><svg width="17" height="25" viewBox="0 0 17 25" xmlns="http://www.w3.org/2000/svg" xmlns:xlink="http://www.w3.org/1999/xlink"><svg width="14" height="13" viewBox="-1 -1 14 13" fill="none" id="comments" y="12" xmlns="http://www.w3.org/2000/svg"><path fill-rule="evenodd" clip-rule="evenodd" d="M2.151 8.843l1.625 1.71.424.446.424-.446 1.625-1.71h4.553c.662 0 1.198-.567 1.198-1.265V1.264C12 .571 11.465 0 10.804 0H1.196C.534 0 0 .567 0 1.264v6.314c0 .695.537 1.265 1.2 1.265h.951z" fill="#fff"/></svg><svg width="17" height="12" viewBox="-1 -1 17 12" fill="none" id="views" xmlns="http://www.w3.org/2000/svg"><path fill-rule="evenodd" clip-rule="evenodd" d="M.682 5.136S2.727.363 7.5.363s6.818 4.773 6.818 4.773S12.273 9.909 7.5 9.909.682 5.136.682 5.136zM7.55 7.09a2 2 0 1 0 0-4 2 2 0 0 0 0 4z" fill="#fff"/></svg></svg>