<?xml version="1.0" encoding="utf-8"?><svg width="53" height="50" viewBox="0 0 53 50" xmlns="http://www.w3.org/2000/svg" xmlns:xlink="http://www.w3.org/1999/xlink"><svg width="19" height="24" viewBox="-1 -1 19 24" fill="none" id="arrows--b" xmlns="http://www.w3.org/2000/svg"><path d="M3.002 21v-2c0-6 10-8 10-14.007V3" stroke="#333" stroke-linecap="round"/><path d="M13.002 21v-2c0-6-10-8.007-10-14.007V2" stroke="#333" stroke-linecap="round"/><path d="M5.834 3.445A1 1 0 0 1 5.002 5h-4A1 1 0 0 1 .17 3.445l2-3a1 1 0 0 1 1.664 0l2 3zM15.834 3.445A1 1 0 0 1 15.002 5h-4a1 1 0 0 1-.832-1.555l2-3a1 1 0 0 1 1.664 0l2 3z" fill="#333"/></svg><svg width="19" height="24" viewBox="-1 -1 19 24" fill="none" id="arrows--w" x="19" xmlns="http://www.w3.org/2000/svg"><path d="M3.002 21v-2c0-6 10-8 10-14.007V3" stroke="#fff" stroke-linecap="round"/><path d="M13.002 21v-2c0-6-10-8.007-10-14.007V2" stroke="#fff" stroke-linecap="round"/><path d="M5.834 3.445A1 1 0 0 1 5.002 5h-4A1 1 0 0 1 .17 3.445l2-3a1 1 0 0 1 1.664 0l2 3zM15.834 3.445A1 1 0 0 1 15.002 5h-4a1 1 0 0 1-.832-1.555l2-3a1 1 0 0 1 1.664 0l2 3z" fill="#fff"/></svg><svg width="14" height="13" viewBox="-1 -1 14 13" fill="none" id="comments" x="38" y="15" xmlns="http://www.w3.org/2000/svg"><path fill-rule="evenodd" clip-rule="evenodd" d="M2.151 8.843l1.625 1.71.424.446.424-.446 1.625-1.71h4.553c.662 0 1.198-.567 1.198-1.265V1.264C12 .571 11.465 0 10.804 0H1.196C.534 0 0 .567 0 1.264v6.314c0 .695.537 1.265 1.2 1.265h.951z" fill="#fff"/></svg><svg width="8" height="14" viewBox="-1 -1 8 14" fill="none" id="fb--b" y="36" xmlns="http://www.w3.org/2000/svg"><path d="M.179 6.342h1.215v4.739c0 .093.08.169.179.169h2.06a.174.174 0 0 0 .179-.17V6.366h1.397c.09 0 .167-.065.178-.15l.212-1.745a.164.164 0 0 0-.044-.132.183.183 0 0 0-.134-.057H3.812V3.188c0-.33.187-.497.557-.497h1.052a.174.174 0 0 0 .179-.17v-1.6c0-.094-.08-.17-.179-.17h-1.45L3.905.75c-.252 0-1.126.047-1.817.649-.765.667-.659 1.465-.634 1.604V4.28H.18a.174.174 0 0 0-.179.17v1.722c0 .093.08.17.179.17z" fill="#454545"/></svg><svg width="15" height="15" viewBox="-1 -1 15 15" fill="none" id="insta--b" x="38" xmlns="http://www.w3.org/2000/svg"><path fill-rule="evenodd" clip-rule="evenodd" d="M3.798 0h5.154a3.803 3.803 0 0 1 3.798 3.798v5.154a3.803 3.803 0 0 1-3.798 3.798H3.798A3.803 3.803 0 0 1 0 8.952V3.798A3.803 3.803 0 0 1 3.798 0zm5.154 11.467a2.515 2.515 0 0 0 2.515-2.515V3.798a2.516 2.516 0 0 0-2.515-2.515H3.798a2.516 2.516 0 0 0-2.515 2.515v5.154a2.515 2.515 0 0 0 2.515 2.515h5.154z" fill="#454545"/><path fill-rule="evenodd" clip-rule="evenodd" d="M3.075 6.373a3.301 3.301 0 0 1 3.298-3.298A3.301 3.301 0 0 1 9.67 6.373 3.301 3.301 0 0 1 6.373 9.67a3.301 3.301 0 0 1-3.298-3.297zm1.283 0a2.015 2.015 0 1 0 4.029 0 2.015 2.015 0 0 0-4.03 0z" fill="#454545"/><path d="M9.678 3.89a.79.79 0 1 0 0-1.58.79.79 0 0 0 0 1.58z" fill="#454545"/></svg><svg width="17" height="12" viewBox="-1 -1 17 12" fill="none" id="views" y="24" xmlns="http://www.w3.org/2000/svg"><path fill-rule="evenodd" clip-rule="evenodd" d="M.682 5.136S2.727.363 7.5.363s6.818 4.773 6.818 4.773S12.273 9.909 7.5 9.909.682 5.136.682 5.136zM7.55 7.09a2 2 0 1 0 0-4 2 2 0 0 0 0 4z" fill="#fff"/></svg><svg width="17" height="11" viewBox="-1 -1 17 11" fill="none" id="vk--w" x="17" y="24" xmlns="http://www.w3.org/2000/svg"><path d="M14.92 8.128a1.118 1.118 0 0 0-.05-.103c-.26-.493-.758-1.098-1.492-1.815l-.016-.016-.007-.008-.008-.009h-.008a9.258 9.258 0 0 1-.633-.673c-.161-.22-.197-.44-.11-.666.063-.17.298-.528.704-1.075.213-.29.382-.523.507-.698C14.708 1.805 15.1 1 14.98.65l-.047-.082c-.03-.05-.112-.094-.242-.136a1.171 1.171 0 0 0-.5-.02l-2.249.016a.278.278 0 0 0-.156.004l-.102.025-.039.02-.03.025a.356.356 0 0 0-.087.087.578.578 0 0 0-.078.143 13.716 13.716 0 0 1-.835 1.848c-.193.34-.37.634-.532.883-.16.25-.296.433-.406.55-.109.118-.208.212-.296.284-.089.071-.157.101-.203.09a5.504 5.504 0 0 1-.133-.033.537.537 0 0 1-.176-.201.936.936 0 0 1-.09-.32 3.705 3.705 0 0 1-.027-.333 7.342 7.342 0 0 1 .004-.394c.005-.17.008-.285.008-.345 0-.208.004-.434.011-.678l.02-.579c.005-.142.008-.293.008-.452 0-.158-.01-.283-.028-.373a1.327 1.327 0 0 0-.082-.263.437.437 0 0 0-.16-.197.878.878 0 0 0-.261-.111A4.95 4.95 0 0 0 7.216 0c-.968-.01-1.59.055-1.866.197-.11.06-.208.143-.297.247-.094.12-.107.186-.04.197.313.049.535.167.665.353l.047.098c.036.072.073.198.109.378.036.181.06.38.07.6.026.4.026.742 0 1.026-.026.285-.05.507-.074.666a1.384 1.384 0 0 1-.2.566.138.138 0 0 1-.038.041.56.56 0 0 1-.211.042c-.073 0-.161-.039-.266-.116a1.914 1.914 0 0 1-.324-.316 4.232 4.232 0 0 1-.378-.562 9.99 9.99 0 0 1-.438-.854l-.125-.239a20.923 20.923 0 0 1-.32-.669 13.256 13.256 0 0 1-.36-.85.54.54 0 0 0-.187-.263L2.944.518A.798.798 0 0 0 2.64.395L.5.412C.282.412.134.464.056.568L.023.617A.277.277 0 0 0 0 .748c0 .06.016.135.047.222.312.772.652 1.517 1.019 2.234.367.717.686 1.295.957 1.733.27.438.546.851.828 1.24.28.389.467.638.558.747.091.11.163.192.215.247l.195.197c.125.131.308.289.55.472.243.184.51.364.805.542.294.178.637.323 1.027.435.39.113.77.158 1.14.136h.898c.183-.016.32-.077.414-.18l.031-.042a.56.56 0 0 0 .059-.152.876.876 0 0 0 .027-.225 2.844 2.844 0 0 1 .051-.637c.039-.189.083-.331.133-.427a1.05 1.05 0 0 1 .3-.361.497.497 0 0 1 .063-.029c.125-.044.272-.001.441.127.17.13.328.288.477.477.148.189.327.4.535.636.208.236.39.41.546.526l.157.099c.104.065.24.126.406.18a.834.834 0 0 0 .437.041l2-.032c.197 0 .351-.035.46-.103.11-.069.174-.144.195-.226a.667.667 0 0 0 .004-.28 1.07 1.07 0 0 0-.055-.217z" fill="#fff"/></svg></svg>