<svg width="17" height="22" viewBox="0 0 17 22" fill="none" xmlns="http://www.w3.org/2000/svg">
<path d="M3.00171 21C3.00171 21 3.00171 20 3.00171 19C3.00171 13 13.0017 11 13.0017 4.99306L13.0017 3" stroke="#333333" stroke-linecap="round"/>
<path d="M13.0017 21C13.0017 21 13.0017 20.0017 13.0017 19C13.0017 13 3.00171 10.9931 3.00171 4.99306L3.00171 2" stroke="#333333" stroke-linecap="round"/>
<path d="M5.83373 3.4453C6.27677 4.10985 5.80038 5 5.00168 5L1.00168 5C0.202986 5 -0.273405 4.10985 0.169631 3.4453L2.16963 0.445299C2.56545 -0.148434 3.43791 -0.148434 3.83373 0.445299L5.83373 3.4453Z" fill="#333333"/>
<path d="M15.8337 3.4453C16.2768 4.10985 15.8004 5 15.0017 5L11.0017 5C10.203 5 9.72659 4.10985 10.1696 3.4453L12.1696 0.445299C12.5655 -0.148434 13.4379 -0.148434 13.8337 0.445299L15.8337 3.4453Z" fill="#333333"/>
</svg>
