<svg width="11" height="21" viewBox="0 0 11 21" fill="none" xmlns="http://www.w3.org/2000/svg">
<path d="M0.327845 11.1275H2.55569V19.8145C2.55569 19.986 2.7024 20.125 2.88349 20.125H6.66087C6.84197 20.125 6.98869 19.986 6.98869 19.8145V11.1685H9.5498C9.71633 11.1685 9.85645 11.0501 9.87547 10.8935L10.2644 7.69537C10.2751 7.60739 10.2457 7.51926 10.1835 7.45323C10.1213 7.38718 10.0323 7.34935 9.93886 7.34935H6.98885V5.3446C6.98885 4.7403 7.33237 4.43384 8.01005 4.43384C8.10663 4.43384 9.93886 4.43384 9.93886 4.43384C10.1199 4.43384 10.2667 4.2948 10.2667 4.12337V1.18778C10.2667 1.01625 10.1199 0.877293 9.93886 0.877293H7.28064C7.26191 0.876429 7.22026 0.875 7.1589 0.875C6.69768 0.875 5.09449 0.96076 3.82808 2.06421C2.42492 3.28704 2.61999 4.75113 2.66659 5.00499V7.34928H0.327807C0.146715 7.34928 0 7.48824 0 7.65976V10.817C3.96956e-05 10.9885 0.146754 11.1275 0.327845 11.1275Z" fill="white"/>
</svg>
