<svg width="6" height="12" viewBox="0 0 6 12" fill="none" xmlns="http://www.w3.org/2000/svg">
<path d="M0.178825 6.34229H1.39401V11.0807C1.39401 11.1742 1.47404 11.25 1.57281 11.25H3.6332C3.73199 11.25 3.81201 11.1742 3.81201 11.0807V6.36463H5.20898C5.29982 6.36463 5.37625 6.30007 5.38662 6.21461L5.59879 4.4702C5.60461 4.42221 5.58856 4.37414 5.55466 4.33813C5.52073 4.3021 5.47217 4.28147 5.4212 4.28147H3.8121V3.18796C3.8121 2.85835 3.99947 2.69119 4.36912 2.69119C4.4218 2.69119 5.4212 2.69119 5.4212 2.69119C5.51997 2.69119 5.6 2.61535 5.6 2.52184V0.920605C5.6 0.827047 5.51997 0.751251 5.4212 0.751251H3.97126C3.96104 0.750779 3.93833 0.75 3.90485 0.75C3.65328 0.75 2.77881 0.796778 2.08805 1.39866C1.32269 2.06566 1.42909 2.86425 1.4545 3.00272V4.28143H0.178804C0.0800265 4.28143 0 4.35722 0 4.45078V6.17292C2.16521e-05 6.26646 0.0800475 6.34229 0.178825 6.34229Z" fill="white"/>
</svg>
