<svg width="7" height="13" viewBox="0 0 7 13" fill="none" xmlns="http://www.w3.org/2000/svg">
<path d="M0.208629 6.72454H1.62635V12.2526C1.62635 12.3617 1.71971 12.4502 1.83494 12.4502H4.23874C4.35398 12.4502 4.44735 12.3617 4.44735 12.2526V6.75059H6.07715C6.18312 6.75059 6.27229 6.67527 6.28439 6.57558L6.53192 4.54043C6.53872 4.48444 6.51999 4.42836 6.48043 4.38634C6.44085 4.34431 6.38419 4.32024 6.32473 4.32024H4.44745V3.04449C4.44745 2.65993 4.66605 2.46491 5.0973 2.46491C5.15876 2.46491 6.32473 2.46491 6.32473 2.46491C6.43997 2.46491 6.53334 2.37643 6.53334 2.26734V0.399234C6.53334 0.290084 6.43997 0.201655 6.32473 0.201655H4.63313C4.62122 0.201104 4.59471 0.200195 4.55566 0.200195C4.26216 0.200195 3.24195 0.25477 2.43605 0.956968C1.54313 1.73513 1.66727 2.66682 1.69692 2.82837V4.32019H0.208604C0.0933643 4.32019 0 4.40862 0 4.51777V6.52694C2.52608e-05 6.63607 0.0933888 6.72454 0.208629 6.72454Z" fill="white"/>
</svg>
