<svg width="24" height="24" viewBox="0 0 24 24" fill="none" xmlns="http://www.w3.org/2000/svg">
<path fill-rule="evenodd" clip-rule="evenodd" d="M7.46356 0.5H16.9114C20.7512 0.5 23.875 3.62402 23.875 7.46338V16.9116C23.875 20.751 20.7512 23.875 16.9114 23.875H7.46356C3.62384 23.875 0.5 20.751 0.5 16.9116V7.46338C0.5 3.62402 3.62384 0.5 7.46356 0.5ZM16.9115 21.5234C19.4587 21.5234 21.5235 19.4585 21.5235 16.9116V7.46338C21.5235 4.9165 19.4587 2.85156 16.9115 2.85156H7.46356C4.91644 2.85156 2.85156 4.9165 2.85156 7.46338V16.9116C2.85156 19.4585 4.91644 21.5234 7.46356 21.5234H16.9115Z" fill="#454545"/>
<path fill-rule="evenodd" clip-rule="evenodd" d="M6.13751 12.1831C6.13751 8.84961 8.84955 6.1377 12.1831 6.1377C15.5167 6.1377 18.2287 8.84961 18.2287 12.1831C18.2287 15.5166 15.5167 18.229 12.1831 18.229C8.84955 18.229 6.13751 15.5166 6.13751 12.1831ZM8.48901 12.1831C8.48901 14.2236 10.1429 15.8774 12.1831 15.8774C14.2233 15.8774 15.8772 14.2236 15.8772 12.1831C15.8772 10.1431 14.2233 8.48926 12.1831 8.48926C10.1429 8.48926 8.48901 10.1431 8.48901 12.1831Z" fill="#454545"/>
<path d="M18.2424 7.63266C19.0425 7.63266 19.6911 6.98407 19.6911 6.18401C19.6911 5.38393 19.0425 4.73535 18.2424 4.73535C17.4423 4.73535 16.7938 5.38393 16.7938 6.18401C16.7938 6.98407 17.4423 7.63266 18.2424 7.63266Z" fill="#454545"/>
</svg>
