<svg width="13" height="13" viewBox="0 0 13 13" fill="none" xmlns="http://www.w3.org/2000/svg">
<path fill-rule="evenodd" clip-rule="evenodd" d="M3.79834 0H8.95166C11.0461 0 12.75 1.7041 12.75 3.79834V8.95166C12.75 11.0459 11.0461 12.75 8.95166 12.75H3.79834C1.70386 12.75 0 11.0459 0 8.95166V3.79834C0 1.7041 1.70386 0 3.79834 0ZM8.95166 11.4673C10.3411 11.4673 11.4675 10.3413 11.4675 8.95166V3.79834C11.4675 2.40918 10.3411 1.28271 8.95166 1.28271H3.79834C2.40894 1.28271 1.28271 2.40918 1.28271 3.79834V8.95166C1.28271 10.3413 2.40894 11.4673 3.79834 11.4673H8.95166Z" fill="white"/>
<path fill-rule="evenodd" clip-rule="evenodd" d="M3.07495 6.37256C3.07495 4.55469 4.5542 3.0752 6.37256 3.0752C8.19092 3.0752 9.67017 4.55469 9.67017 6.37256C9.67017 8.19092 8.19092 9.67041 6.37256 9.67041C4.5542 9.67041 3.07495 8.19092 3.07495 6.37256ZM4.35767 6.37305C4.35767 7.48584 5.25977 8.3877 6.37256 8.3877C7.48535 8.3877 8.3877 7.48584 8.3877 6.37305C8.3877 5.26025 7.48535 4.35791 6.37256 4.35791C5.25977 4.35791 4.35767 5.26025 4.35767 6.37305Z" fill="white"/>
<path d="M9.67762 3.88992C10.114 3.88992 10.4678 3.53614 10.4678 3.09975C10.4678 2.66334 10.114 2.30957 9.67762 2.30957C9.24122 2.30957 8.88745 2.66334 8.88745 3.09975C8.88745 3.53614 9.24122 3.88992 9.67762 3.88992Z" fill="white"/>
</svg>
