<svg width="24" height="20" viewBox="0 0 24 20" fill="none" xmlns="http://www.w3.org/2000/svg">
<path d="M9.02692 18.7878C8.31192 18.7878 8.43342 18.5196 8.18682 17.8432L6.08423 10.9679L22.269 1.42822" fill="#E7DDD2"/>
<path d="M9.0271 18.7886C9.57885 18.7886 9.82264 18.5379 10.1306 18.2404L13.0733 15.3974L9.40266 13.1982" fill="#CABBAA"/>
<path d="M9.40213 13.1987L18.2964 19.7276C19.3114 20.284 20.0439 19.9959 20.2967 18.7913L23.9171 1.84053C24.2878 0.364012 23.3507 -0.305667 22.3797 0.132307L1.12058 8.27688C-0.33055 8.85517 -0.32209 9.65954 0.856072 10.018L6.31164 11.7097L18.9419 3.79286C19.5381 3.43363 20.0853 3.62676 19.6362 4.02281" fill="url(#paint0_linear)"/>
<defs>
<linearGradient id="paint0_linear" x1="5" y1="3.5" x2="21.5" y2="18.5" gradientUnits="userSpaceOnUse">
<stop stop-color="white"/>
<stop offset="1" stop-color="white"/>
</linearGradient>
</defs>
</svg>
