<svg width="26" height="22" viewBox="0 0 26 22" fill="none" xmlns="http://www.w3.org/2000/svg">
<path d="M9.77923 20.6668C9.00464 20.6668 9.13626 20.3718 8.86911 19.6277L6.59131 12.065L24.1249 1.57129" fill="#C8DAEA"/>
<path d="M9.7793 20.6669C10.377 20.6669 10.6411 20.3912 10.9748 20.0639L14.1627 16.9367L10.1862 14.5176" fill="#A9C9DD"/>
<path d="M10.1856 14.5186L19.8211 21.7003C20.9207 22.3124 21.7142 21.9955 21.9881 20.6705L25.9102 2.02458C26.3118 0.400414 25.2965 -0.336233 24.2447 0.145537L1.21397 9.10457C-0.358096 9.74069 -0.348931 10.6255 0.927411 11.0197L6.83761 12.8807L20.5203 4.17215C21.1663 3.77699 21.7591 3.98943 21.2725 4.42509" fill="url(#paint0_linear)"/>
<defs>
<linearGradient id="paint0_linear" x1="17.1522" y1="9.6118" x2="20.9493" y2="18.1768" gradientUnits="userSpaceOnUse">
<stop stop-color="#EFF7FC"/>
<stop offset="1" stop-color="white"/>
</linearGradient>
</defs>
</svg>
