<svg width="22" height="19" viewBox="0 0 22 19" fill="none" xmlns="http://www.w3.org/2000/svg">
<path fill-rule="evenodd" clip-rule="evenodd" d="M10.6823 5.0543L10.7299 5.8761L9.93513 5.77547C7.04202 5.38973 4.51452 4.08155 2.36854 1.88448L1.31939 0.794336L1.04915 1.59937C0.476886 3.39392 0.842499 5.2891 2.03472 6.56373C2.67056 7.26814 2.5275 7.36876 1.43066 6.94948C1.04915 6.81531 0.71533 6.71468 0.683537 6.76499C0.572264 6.88239 0.953773 8.4086 1.2558 9.01237C1.6691 9.85095 2.5116 10.6728 3.43358 11.1591L4.2125 11.5449L3.29052 11.5616C2.40033 11.5616 2.36854 11.5784 2.46391 11.9306C2.78184 13.0208 4.03764 14.178 5.43651 14.6811L6.42207 15.0333L5.56367 15.57C4.29198 16.3415 2.79773 16.7776 1.30349 16.8111C0.58816 16.8279 0 16.895 0 16.9453C0 17.113 1.93934 18.0522 3.06797 18.4212C6.45386 19.5113 10.4756 19.0417 13.4959 17.1801C15.6419 15.8551 17.7879 13.222 18.7893 10.6728C19.3298 9.31426 19.8703 6.83208 19.8703 5.6413C19.8703 4.86981 19.918 4.76918 20.8081 3.84675C21.3327 3.31006 21.8255 2.72306 21.9209 2.55534C22.0798 2.23669 22.0639 2.23669 21.2532 2.5218C19.9021 3.02495 19.7113 2.95786 20.3789 2.20314C20.8717 1.66645 21.4599 0.693707 21.4599 0.408592C21.4599 0.358277 21.2214 0.442135 20.9512 0.593078C20.6651 0.760793 20.0292 1.01237 19.5523 1.16331L18.6939 1.44842L17.915 0.894965C17.4858 0.593078 16.8818 0.257648 16.5639 0.157019C15.7531 -0.077782 14.5132 -0.044239 13.782 0.224105C11.795 0.978823 10.5392 2.92432 10.6823 5.0543Z" fill="white"/>
</svg>
