<svg width="17" height="13" viewBox="0 0 17 13" fill="none" xmlns="http://www.w3.org/2000/svg">
<path d="M5.6428 12.7146C11.4541 12.7146 14.6327 7.89992 14.6327 3.72467C14.6327 3.58792 14.6327 3.45178 14.6235 3.31626C15.2418 2.86899 15.7756 2.31519 16.1998 1.68078C15.6232 1.9363 15.0114 2.10387 14.3851 2.1779C15.0446 1.78303 15.5383 1.16197 15.7741 0.430305C15.1539 0.798337 14.4754 1.05771 13.7678 1.19722C12.7884 0.155812 11.2322 -0.0990779 9.97177 0.575484C8.71133 1.25005 8.06015 2.6863 8.38338 4.07887C5.84293 3.95151 3.476 2.75159 1.87164 0.777729C1.03304 2.22141 1.46138 4.06831 2.84985 4.99548C2.34704 4.98058 1.85518 4.84494 1.4158 4.60001C1.4158 4.61295 1.4158 4.6265 1.4158 4.64005C1.41622 6.14407 2.4764 7.43948 3.95064 7.7373C3.48548 7.86416 2.99743 7.8827 2.52399 7.7915C2.93791 9.07859 4.12409 9.96031 5.47586 9.9857C4.35704 10.865 2.97494 11.3423 1.55194 11.3409C1.30055 11.3404 1.04941 11.3252 0.799805 11.2953C2.24472 12.2226 3.92595 12.7144 5.6428 12.7121" fill="white"/>
</svg>
