<svg width="22" height="13" viewBox="0 0 22 13" fill="none" xmlns="http://www.w3.org/2000/svg">
<path fill-rule="evenodd" clip-rule="evenodd" d="M12.0789 12.9457C12.0789 12.9457 12.476 12.9 12.6793 12.6737C12.8655 12.4664 12.859 12.0752 12.859 12.0752C12.859 12.0752 12.8343 10.2485 13.6531 9.97882C14.4601 9.71357 15.4964 11.7453 16.596 12.5266C17.4267 13.1173 18.0573 12.988 18.0573 12.988L20.9959 12.9457C20.9959 12.9457 22.5325 12.8476 21.804 11.596C21.7437 11.4935 21.379 10.6698 19.6197 8.97799C17.7764 7.20702 18.0239 7.49345 20.2427 4.42965C21.5942 2.56395 22.1343 1.42491 21.9654 0.937868C21.8051 0.472 20.8108 0.595711 20.8108 0.595711L17.5031 0.616887C17.5031 0.616887 17.2578 0.582337 17.076 0.694903C16.8984 0.80524 16.7833 1.06269 16.7833 1.06269C16.7833 1.06269 16.2603 2.50599 15.562 3.73419C14.0889 6.32432 13.5003 6.46141 13.2593 6.30092C12.6987 5.92533 12.8386 4.79409 12.8386 3.99053C12.8386 1.47952 13.2066 0.432992 12.123 0.162164C11.7636 0.0718886 11.4989 0.0128192 10.5789 0.00278856C9.39855 -0.00947112 8.4 0.00724664 7.83401 0.293677C7.4574 0.48426 7.16688 0.910005 7.34442 0.934524C7.56285 0.964616 8.05782 1.07272 8.32037 1.44274C8.65932 1.92087 8.64748 2.99304 8.64748 2.99304C8.64748 2.99304 8.84224 5.94873 8.19233 6.31541C7.74685 6.56729 7.13567 6.0535 5.82185 3.70298C5.14934 2.4993 4.64146 1.16857 4.64146 1.16857C4.64146 1.16857 4.54354 0.920035 4.36815 0.786293C4.15617 0.624689 3.86027 0.574535 3.86027 0.574535L0.717209 0.595711C0.717209 0.595711 0.244836 0.609085 0.0715967 0.821958C-0.0822743 1.01031 0.0597604 1.40151 0.0597604 1.40151C0.0597604 1.40151 2.52062 7.36528 5.30751 10.3711C7.86306 13.1262 10.764 12.9457 10.764 12.9457H12.0789Z" fill="white"/>
</svg>
