<svg width="15" height="9" viewBox="0 0 15 9" fill="none" xmlns="http://www.w3.org/2000/svg">
<path d="M14.9204 8.12799C14.9022 8.08682 14.8853 8.05268 14.8696 8.02532C14.6093 7.53241 14.1121 6.92738 13.3779 6.21009L13.3624 6.19367L13.3547 6.18561L13.3468 6.17736H13.3389C13.0057 5.84335 12.7947 5.61876 12.7064 5.50379C12.5447 5.28475 12.5085 5.06305 12.5969 4.83842C12.6593 4.66869 12.8938 4.31026 13.2997 3.76263C13.5133 3.4724 13.6825 3.2398 13.8073 3.06455C14.7081 1.80515 15.0987 1.00038 14.9789 0.649912L14.9323 0.568014C14.9011 0.518709 14.8204 0.473602 14.6904 0.432466C14.5601 0.391416 14.3935 0.384627 14.1904 0.411985L11.9412 0.428323C11.9048 0.414746 11.8527 0.416011 11.785 0.432466C11.7172 0.44892 11.6834 0.457176 11.6834 0.457176L11.6442 0.477745L11.6132 0.502455C11.5872 0.518794 11.5585 0.547532 11.5272 0.588611C11.4962 0.629546 11.4702 0.677586 11.4493 0.732329C11.2045 1.39485 10.9261 2.01083 10.6136 2.58024C10.4209 2.91977 10.244 3.21402 10.0824 3.46317C9.92107 3.71223 9.78566 3.89574 9.67641 4.01335C9.56699 4.1311 9.46824 4.22543 9.37957 4.29668C9.29099 4.36796 9.22341 4.39809 9.17666 4.38706C9.12974 4.37605 9.08557 4.36511 9.04374 4.35419C8.97091 4.30488 8.91224 4.23782 8.86807 4.15296C8.82374 4.0681 8.79382 3.96129 8.77824 3.83262C8.76274 3.70386 8.75349 3.59311 8.75091 3.49999C8.74849 3.40699 8.74957 3.27544 8.75482 3.10572C8.76024 2.93591 8.76274 2.82101 8.76274 2.76078C8.76274 2.55268 8.76657 2.32683 8.77432 2.08318C8.78216 1.83952 8.78857 1.64648 8.79391 1.50425C8.79916 1.36189 8.80166 1.21127 8.80166 1.05248C8.80166 0.893677 8.79249 0.76915 8.77432 0.678766C8.75632 0.588496 8.72882 0.500873 8.69249 0.415926C8.65599 0.331064 8.60257 0.265419 8.53241 0.218817C8.46216 0.172272 8.37474 0.135336 8.27079 0.107893C7.99482 0.0422185 7.64339 0.00669179 7.21637 0.00116861C6.24799 -0.00976269 5.62577 0.0559976 5.34982 0.198364C5.24049 0.258514 5.14154 0.340701 5.05308 0.444663C4.95934 0.565166 4.94626 0.630927 5.01394 0.641743C5.32638 0.690963 5.54756 0.808704 5.67774 0.994849L5.72465 1.09349C5.76114 1.16466 5.79758 1.29066 5.83404 1.47132C5.87045 1.65197 5.89395 1.85181 5.90429 2.07072C5.93028 2.47049 5.93028 2.8127 5.90429 3.09738C5.87822 3.38216 5.8536 3.60386 5.8301 3.76266C5.80661 3.92145 5.77149 4.05012 5.72465 4.14865C5.67774 4.24721 5.64653 4.30744 5.63089 4.32931C5.61526 4.35117 5.60224 4.36495 5.5919 4.37035C5.52423 4.39762 5.45384 4.41152 5.381 4.41152C5.30804 4.41152 5.21959 4.37315 5.11547 4.29645C5.01139 4.21976 4.90337 4.11441 4.7914 3.98025C4.67944 3.84605 4.55318 3.65853 4.41255 3.41763C4.27203 3.17674 4.12623 2.89204 3.97524 2.56353L3.85031 2.32528C3.77221 2.17201 3.66553 1.94884 3.53015 1.65597C3.3947 1.36298 3.27496 1.07957 3.17088 0.805798C3.12928 0.690819 3.06677 0.603283 2.98348 0.543045L2.94439 0.518335C2.9184 0.496471 2.87669 0.473257 2.81946 0.448517C2.76216 0.423808 2.70236 0.406087 2.63983 0.395185L0.499927 0.411524C0.281257 0.411524 0.132887 0.46362 0.0547634 0.567669L0.0234973 0.616888C0.00787804 0.644303 0 0.688086 0 0.748352C0 0.808589 0.0156193 0.882523 0.0468853 0.970055C0.359271 1.74215 0.698984 2.48677 1.06602 3.20404C1.43306 3.92131 1.75201 4.49908 2.02269 4.93685C2.29341 5.37494 2.56936 5.7884 2.85054 6.17703C3.13171 6.56581 3.31783 6.81496 3.4089 6.92442C3.50006 7.03408 3.57168 7.11606 3.62374 7.17081L3.81901 7.36789C3.94397 7.49932 4.12746 7.65673 4.36958 7.84012C4.61174 8.02362 4.87984 8.20428 5.17401 8.38237C5.46824 8.56018 5.81052 8.70528 6.20106 8.81747C6.59154 8.9298 6.9716 8.97488 7.34129 8.95317H8.23944C8.42157 8.9366 8.55957 8.87634 8.65341 8.77238L8.68449 8.73122C8.70541 8.69857 8.72491 8.6478 8.74299 8.57948C8.76124 8.51104 8.77032 8.43564 8.77032 8.35363C8.76499 8.11824 8.78207 7.90608 8.82099 7.7172C8.85991 7.52838 8.90432 7.38601 8.95391 7.29013C9.00349 7.19434 9.05949 7.11351 9.12174 7.04798C9.18416 6.9823 9.22866 6.94251 9.25474 6.92882C9.28066 6.91504 9.30141 6.90569 9.31699 6.90009C9.44199 6.8563 9.58899 6.8987 9.75841 7.02749C9.92766 7.15617 10.0864 7.31505 10.2348 7.50386C10.3832 7.69286 10.5616 7.9049 10.7697 8.1403C10.9782 8.37578 11.1603 8.55083 11.3165 8.66598L11.4726 8.76453C11.5768 8.83029 11.7122 8.89055 11.8789 8.94523C12.0452 9 12.191 9.01369 12.3161 8.98631L14.3153 8.95352C14.5131 8.95352 14.667 8.91907 14.7761 8.85079C14.8855 8.78233 14.9504 8.70694 14.9714 8.62493C14.9923 8.54283 14.9934 8.44968 14.9753 8.34555C14.9568 8.24167 14.9386 8.16903 14.9204 8.12799Z" fill="white"/>
</svg>
